<svg version="1.0" xmlns="http://www.w3.org/2000/svg" width="800.000000" height="800.000000" viewBox="0 0 800.000000 800.000000" preserveAspectRatio="xMidYMid meet">
  <metadata>
    <rdf:RDF xmlns:rdf="http://www.w3.org/1999/02/22-rdf-syntax-ns#" xmlns:rdfs="http://www.w3.org/2000/01/rdf-schema#" xmlns:dc="http://purl.org/dc/elements/1.1/">
      <rdf:Description dc:format="image/svg+xml" dc:Label="1" dc:ContentProducer="001191330110MACRLGPT8B00000" dc:ProduceID="397607278" dc:ReservedCode1="Q7EkDz6jJDgFn0jUrwzWSO5WNNREjxiBJ5McooxUOQs=" dc:ContentPropagator="001191330110MACRLGPT8B00000" dc:PropagateID="397607278" dc:ReservedCode2="Q7EkDz6jJDgFn0jUrwzWSO5WNNREjxiBJ5McooxUOQs="/>
    </rdf:RDF>
  </metadata>
  <g transform="translate(0.000000,800.000000) scale(0.100000,-0.100000)" fill="#f1f1f1" stroke="none">
    <path d="M4936 6063 c-56 -54 -317 -312 -581 -573 -1101 -1091 -1565 -1555 -1571 -1573 -9 -29 15 -76 44 -84 14 -3 149 -3 299 1 150 3 273 4 273 1 0 -6 -367 -654 -470 -830 -26 -44 -127 -219 -225 -390 -98 -170 -222 -385 -276 -477 -105 -177 -116 -211 -79 -248 31 -31 65 -25 118 23 26 23 97 87 158 142 61 55 146 132 190 171 97 86 1030 922 1209 1083 494 444 945 846 1077 961 160 139 181 166 158 209 -20 39 -39 41 -231 26 -101 -8 -209 -15 -239 -15 l-55 0 268 268 c250 250 267 269 267 303 0 69 -1 69 -328 69 -161 0 -292 3 -292 6 0 4 13 30 29 58 28 49 237 444 388 733 80 154 86 186 40 218 -43 30 -65 20 -171 -82z m-312 -620 c-37 -70 -100 -188 -141 -261 -40 -73 -73 -141 -73 -151 0 -10 8 -29 18 -41 19 -23 19 -23 281 -21 251 2 261 2 249 -16 -6 -10 -132 -135 -279 -278 -147 -143 -271 -270 -274 -282 -10 -32 2 -71 24 -83 13 -7 91 -5 248 4 125 8 229 13 231 12 1 -2 -111 -104 -250 -228 -269 -239 -624 -556 -1382 -1237 -258 -231 -471 -419 -473 -417 -2 2 16 37 40 77 25 41 162 279 305 529 143 250 314 550 381 665 66 116 121 220 121 233 0 12 -9 31 -20 42 -20 20 -28 20 -278 14 l-257 -7 52 59 c28 32 86 92 130 133 43 41 376 371 741 734 365 363 665 657 668 654 3 -3 -25 -63 -62 -134z"/>
    <path d="M1321 5104 c-25 -31 -26 -46 -7 -82 8 -15 131 -143 273 -284 l259 -258 256 0 256 0 -35 -112 c-19 -62 -75 -241 -125 -398 -49 -157 -118 -377 -153 -490 -35 -113 -68 -218 -74 -233 -13 -33 -14 -86 -3 -104 18 -28 70 -33 343 -33 l280 0 24 25 c14 13 25 30 25 37 0 8 14 57 30 111 l31 97 113 0 112 0 17 73 c10 39 17 75 17 80 0 4 -87 7 -193 7 l-194 0 -33 -112 c-18 -62 -37 -121 -42 -130 -8 -16 -27 -18 -173 -18 -91 0 -165 2 -165 4 0 11 264 855 346 1106 57 174 63 213 39 240 -17 19 -33 20 -328 20 l-310 0 -146 151 c-80 83 -147 155 -149 160 -2 5 382 9 920 9 l923 0 80 80 80 80 -1137 0 -1137 0 -20 -26z"/>
    <path d="M6047 5112 c-9 -10 -26 -49 -37 -87 -108 -358 -210 -689 -214 -692 -2 -2 -43 60 -91 139 -116 188 -267 432 -271 437 -5 5 -124 -100 -124 -110 0 -8 411 -675 449 -728 24 -34 63 -46 98 -29 33 15 35 22 189 530 57 191 109 359 114 373 l10 25 165 0 c104 0 165 -4 165 -10 0 -6 -43 -151 -96 -323 -52 -171 -116 -379 -140 -462 -25 -82 -56 -184 -69 -225 -13 -41 -51 -167 -85 -280 -123 -410 -113 -385 -153 -388 l-34 -3 -264 432 c-145 238 -274 443 -286 456 -41 43 -62 33 -230 -105 -30 -25 -41 -53 -139 -372 -58 -190 -111 -360 -116 -377 l-9 -33 -154 0 c-85 0 -156 3 -158 8 -3 4 6 41 19 82 29 90 29 102 6 123 -27 25 -72 20 -108 -11 -39 -34 -49 -52 -90 -176 -41 -122 -43 -148 -8 -175 26 -20 39 -21 304 -21 250 0 280 2 299 18 16 12 43 88 102 277 128 418 179 574 188 579 5 3 74 -101 155 -232 327 -531 383 -617 407 -629 29 -15 216 -17 253 -3 21 8 30 25 56 112 44 145 90 295 150 493 28 94 62 204 75 245 14 41 33 107 44 145 10 39 65 219 121 400 56 182 115 375 132 430 35 116 37 138 13 165 -17 19 -32 20 -320 20 -278 0 -303 -1 -318 -18z"/>
    <path d="M2895 4538 c-19 -61 -35 -114 -35 -118 0 -4 11 -12 24 -18 24 -11 46 9 226 201 l44 47 -112 0 -111 0 -36 -112z"/>
  </g>
</svg>